# Blender v2.81 (sub 16) OBJ File: 'GreyBlockout.blend'
# www.blender.org
mtllib GreyBlockout.mtl
o Chunk_Plane.005
v -84.030190 9.627858 -0.000013
v -84.030190 -123.335991 -0.000013
v -164.791229 9.627858 -0.000016
v -164.791229 -123.335991 -0.000016
v -84.030190 9.627830 -75.000008
v -84.030190 -123.336021 -75.000008
v -164.791229 9.627830 -75.000015
v -164.791229 -123.336021 -75.000015
v 32.427334 -0.000029 -75.000000
v 32.427326 -0.000000 0.000032
v 0.000003 -0.000029 -75.000000
v 0.000000 -0.000000 0.000030
v -32.427334 -0.000029 -75.000000
v -32.427338 -0.000000 0.000027
v 0.000003 -0.000029 -75.000000
v 0.000000 -0.000000 0.000030
v 32.427334 -1.064705 -75.000000
v 32.427326 -1.064676 -0.000006
v 84.030212 -1.064676 -0.000004
v 84.030212 -1.064705 -75.000000
v 84.030212 9.627858 -0.000004
v 84.030212 -123.335991 -0.000004
v 164.791199 9.627858 -0.000001
v 164.791199 -123.335991 -0.000001
v 84.030212 9.627830 -75.000000
v 84.030212 -123.336021 -75.000000
v 164.791199 9.627830 -74.999992
v 164.791199 -123.336021 -74.999992
v -84.030190 -1.064705 -75.000008
v -84.030190 -1.064676 -0.000013
v -32.427338 -1.064676 -0.000011
v -32.427334 -1.064705 -75.000000
v 32.427334 -0.000029 -75.000000
v 32.427326 -0.000001 -0.000006
v -32.427338 -0.000001 -0.000011
v -32.427334 -0.000029 -75.000000
vt 0.375000 0.000000
vt 0.625000 0.000000
vt 0.625000 0.250000
vt 0.375000 0.250000
vt 0.375000 0.500000
vt 0.625000 0.500000
vt 0.625000 0.750000
vt 0.375000 0.750000
vt 0.625000 1.000000
vt 0.375000 1.000000
vt 0.875000 0.500000
vt 0.875000 0.750000
vt 0.000000 0.000000
vt 1.000000 0.000000
vt 1.000000 1.000000
vt 0.000000 1.000000
vt 0.000000 0.000000
vt 1.000000 0.000000
vt 1.000000 1.000000
vt 0.000000 1.000000
vt 0.375000 0.000000
vt 0.625000 0.000000
vt 0.625000 0.250000
vt 0.375000 0.250000
vt 0.375000 0.500000
vt 0.625000 0.500000
vt 0.625000 0.750000
vt 0.375000 0.750000
vt 0.625000 1.000000
vt 0.375000 1.000000
vt 0.875000 0.500000
vt 0.875000 0.750000
vt 0.000000 0.000000
vt 1.000000 0.000000
vt 1.000000 1.000000
vt 0.000000 1.000000
vt 0.000000 0.000000
vt 1.000000 0.000000
vt 1.000000 1.000000
vt 0.000000 1.000000
vt 0.000000 0.000000
vt 1.000000 0.000000
vt 1.000000 1.000000
vt 0.000000 1.000000
vn 0.0000 0.0000 -1.0000
vn -0.0000 0.0000 1.0000
vn -1.0000 0.0000 0.0000
vn 0.0000 1.0000 -0.0000
vn -0.0000 -1.0000 0.0000
vn 1.0000 0.0000 0.0000
g Chunk_Plane.005_None
usemtl None
s off
f 1/1/1 2/2/1 4/3/1 3/4/1
f 7/5/2 8/6/2 6/7/2 5/8/2
f 5/8/3 6/7/3 2/9/3 1/10/3
f 8/6/4 4/11/4 2/12/4 6/7/4
f 16/13/4 15/14/4 13/15/4 14/16/4
f 18/17/5 17/18/5 20/19/5 19/20/5
f 21/21/2 22/22/2 24/23/2 23/24/2
f 27/25/1 28/26/1 26/27/1 25/28/1
f 25/28/3 26/27/3 22/29/3 21/30/3
f 28/26/5 24/31/5 22/32/5 26/27/5
f 30/33/5 29/34/5 32/35/5 31/36/5
f 12/37/5 11/38/5 9/39/5 10/40/5
f 17/18/3 18/17/3 34/41/3 33/42/3
f 31/36/6 32/35/6 36/43/6 35/44/6
