# Blender v2.81 (sub 16) OBJ File: 'GreyBlockout.blend'
# www.blender.org
mtllib plane_test.mtl
o Cube.002_Cube
v 6.914792 -2.229007 -0.156557
v 3.616494 -0.287551 -11.852320
v 6.914792 -2.205631 -0.156557
v 3.612107 -0.279851 -11.852320
v 4.446768 -2.229007 -0.156557
v 4.488153 -2.183573 -0.156557
v 7.195976 -2.043376 -1.308953
v 4.261100 -1.713301 -3.135674
v 7.195544 -2.021544 -1.308953
v 4.228634 -1.741699 -3.184767
v 7.195544 -2.087599 -1.313922
v 4.170176 -2.023325 -3.145061
v 0.281188 -2.229007 -0.156557
v 3.579486 -0.287551 -11.852320
v 3.597990 -0.261868 -11.852320
v 3.597990 -0.083853 -0.156557
v 0.281188 -2.205631 -0.156557
v 3.583873 -0.279851 -11.852320
v 2.749212 -2.229007 -0.156557
v 3.597990 -0.287551 -11.852320
v 3.597990 0.023376 -0.156557
v 3.597990 -0.261868 -11.852320
v 3.597990 -0.279851 -11.852320
v 2.707827 -2.183573 -0.156557
v 3.597990 -0.129197 -3.135674
v 0.000004 -2.043376 -1.308953
v 2.934880 -1.713301 -3.135674
v 0.000436 -2.021544 -1.308953
v 3.597990 -0.053263 -3.298956
v 2.967346 -1.741699 -3.184767
v 0.000436 -2.087599 -1.313922
v 3.025804 -2.023325 -3.145061
v 3.597990 -0.595553 -3.149922
vt 0.260100 0.490903
vt 0.126326 0.560739
vt 0.126294 0.556606
vt 0.261653 0.487604
vt 0.000116 0.447560
vt 0.002388 0.446630
vt 0.030020 0.358842
vt 0.027999 0.357716
vt 0.464667 0.000116
vt 0.470548 0.007009
vt 0.855293 0.507799
vt 0.999884 0.577650
vt 0.995768 0.646232
vt 0.856731 0.671022
vt 0.704347 0.652165
vt 0.749198 0.549245
vt 0.217592 0.366843
vt 0.480011 0.008945
vt 0.481452 0.002162
vt 0.486619 0.012211
vt 0.306649 0.391881
vt 0.750195 0.546956
vt 0.757266 0.530743
vt 0.866320 0.492644
vt 0.991263 0.570496
vt 0.990653 0.011406
vt 0.984262 0.008297
vt 0.999884 0.014514
vt 0.294658 0.635683
vt 0.291456 0.638284
vt 0.458033 0.661331
vt 0.458758 0.663672
vt 0.000116 0.665262
vt 0.000116 0.665262
vt 0.000139 0.663903
vt 0.000139 0.665262
vt 0.508196 0.584320
vt 0.501308 0.021408
vt 0.510346 0.021593
vt 0.510346 0.585167
vt 0.707519 0.443491
vt 0.587195 0.553628
vt 0.510577 0.435530
vt 0.557702 0.385839
vt 0.383122 0.444401
vt 0.493840 0.015331
vt 0.498161 0.009935
vt 0.711089 0.425089
vt 0.568773 0.387215
vt 0.975055 0.004671
vt 0.966488 0.000116
vn -0.0000 0.0000 1.0000
vn 0.9431 0.1539 -0.2948
vn 0.0000 -0.9873 -0.1589
vn -0.9304 -0.3664 0.0068
vn 0.0028 0.9868 0.1621
vn 0.0000 0.0000 -1.0000
vn 0.9303 0.3667 -0.0097
vn 0.9280 0.3723 -0.0105
vn 0.0075 0.9876 0.1565
vn 0.1020 0.0259 0.9945
vn -0.5093 0.1817 0.8412
vn 0.9712 0.0093 0.2383
vn -0.9304 -0.3663 -0.0130
vn 0.1001 -0.9745 -0.2006
vn 0.9479 0.0264 -0.3174
vn -0.9431 0.1539 -0.2948
vn 0.9304 -0.3664 0.0068
vn -0.0028 0.9868 0.1621
vn -0.9303 0.3667 -0.0097
vn -0.9280 0.3723 -0.0105
vn -0.0075 0.9876 0.1565
vn -0.1020 0.0259 0.9945
vn 0.5093 0.1817 0.8412
vn -0.9712 0.0093 0.2383
vn 0.9304 -0.3663 -0.0130
vn -0.1001 -0.9745 -0.2006
vn -0.9479 0.0264 -0.3174
g Cube.002_Cube_Material.002
usemtl Material.002
s off
f 16/1/1 5/2/1 6/3/1 21/4/1
f 6/3/1 5/2/1 1/5/1 3/6/1
f 9/7/2 7/8/2 2/9/2 4/10/2
f 10/11/3 7/12/3 1/13/3 5/14/3
f 10/11/4 5/14/4 16/15/4 25/16/4
f 8/17/5 9/7/5 4/10/5 23/18/5
f 4/10/6 2/9/6 20/19/6 23/18/6
f 8/17/7 23/18/7 22/20/7 29/21/7
f 6/3/8 8/17/8 29/21/8 21/4/8
f 6/3/9 3/6/9 9/7/9 8/17/9
f 10/11/10 25/22/10 33/23/10 12/24/10
f 7/12/11 10/11/11 12/24/11 11/25/11
f 3/6/12 1/5/12 7/8/12 9/7/12
f 20/26/13 12/24/13 33/23/13 15/27/13
f 20/26/14 2/28/14 11/25/14 12/24/14
f 2/28/15 7/12/15 11/25/15
f 16/1/1 21/4/1 24/29/1 19/30/1
f 24/29/1 17/31/1 13/32/1 19/30/1
f 22/33/1 15/34/1 20/35/1 23/36/1
f 28/37/16 18/38/16 14/39/16 26/40/16
f 30/41/3 19/42/3 13/43/3 26/44/3
f 30/41/17 25/16/17 16/15/17 19/42/17
f 27/45/18 23/46/18 18/38/18 28/37/18
f 18/38/6 23/46/6 20/47/6 14/39/6
f 27/45/19 29/21/19 22/20/19 23/46/19
f 24/29/20 21/4/20 29/21/20 27/45/20
f 24/29/21 27/45/21 28/37/21 17/31/21
f 30/41/22 32/48/22 33/23/22 25/22/22
f 26/44/23 31/49/23 32/48/23 30/41/23
f 17/31/24 28/37/24 26/40/24 13/32/24
f 20/50/25 15/27/25 33/23/25 32/48/25
f 20/50/26 32/48/26 31/49/26 14/51/26
f 14/51/27 31/49/27 26/44/27
